<svg version="1" xmlns="http://www.w3.org/2000/svg" width="1365.333" height="1365.333" viewBox="0 0 1024.000000 1024.000000"><path d="M0 512v512h1024V0H0v512zm213-22.5V725h642l-.2 21.2-.3 21.3h-685l-.3-255.5c-.1-140.5 0-256.1.3-256.8.3-.9 5.7-1.2 22-1.2H213v235.5zm555.8.2l-.3 192.8h-85l-.3-192.8L683 297h86l-.2 192.7zM512 511.5V683l-42.7-.2-42.8-.3-.3-171.3L426 340h86v171.5zM640.5 554v128.5h-86l-.3-127.5c-.1-70.1 0-128.1.3-128.8.3-1 9.5-1.2 43.2-1l42.8.3V554zm-256.7 42.7l-.3 85.8-42.7.3-42.8.2V511h86l-.2 85.7z"/></svg>